Language: English
Genre:Crime | Drama | Thriller  http://www.imdb.com/title/tt0840361/
Source:Speed RG-Thanks

General
Complete name :The Town.2010.DvDRip,H264.Feel-Free
Format : MPEG-4
Format profile : Base Media
Codec ID : isom
File size : 872 MiB
Duration : 2h 4mn
Overall bit rate : 977 Kbps
Video #2
Codec ID : avc1
Codec ID/Info : Advanced Video Coding
Duration : 2h 4mn
Bit rate mode : Variable
Bit rate : 811 Kbps
Width : 720 pixels
Height : 304 pixels
Display aspect ratio : 2.35:1
Frame rate mode : Constant
Frame rate : 29.970 fps
Original frame rate : 29.000 fps
Resolution : 24 bits
Colorimetry : 4:2:0
Scan type : Progressive
Bits/(Pixel*Frame) : 0.124
Stream size : 724 MiB (83%)
Audio #1
ID : 1
Format : AAC
Format/Info : Advanced Audio Codec
Format version : Version 4
Format profile : LC
Format settings, SBR : No
Codec ID : 40
Duration : 2h 4mn
Bit rate mode : Constant
Bit rate : 160 Kbps
Channel(s) : 2 channels
Channel positions : L R
Sampling rate : 48.0 KHz
Resolution : 16 bits
Stream size : 143 MiB (16%)

Plot:
As he plans his next job, a longtime thief tries to balance his feelings for a bank manager connected to one of his earlier heists, as well as the FBI agent looking to bring him and his crew down

